<?xml version="1.0" encoding="UTF-8" standalone="no"?>
<svg
   width="16"
   height="16"
   fill="currentColor"
   class="bi bi-1-circle"
   viewBox="0 0 16 16"
   version="1.1"
   id="svg6427"
   sodipodi:docname="1-circle.svg"
   inkscape:version="1.2.1 (9c6d41e410, 2022-07-14)"
   xmlns:inkscape="http://www.inkscape.org/namespaces/inkscape"
   xmlns:sodipodi="http://sodipodi.sourceforge.net/DTD/sodipodi-0.dtd"
   xmlns="http://www.w3.org/2000/svg"
   xmlns:svg="http://www.w3.org/2000/svg">
  <defs
     id="defs6431" />
  <sodipodi:namedview
     id="namedview6429"
     pagecolor="#ffffff"
     bordercolor="#000000"
     borderopacity="0.25"
     inkscape:showpageshadow="2"
     inkscape:pageopacity="0.0"
     inkscape:pagecheckerboard="0"
     inkscape:deskcolor="#d1d1d1"
     showgrid="false"
     inkscape:zoom="52.3125"
     inkscape:cx="8.0095579"
     inkscape:cy="6.4802867"
     inkscape:window-width="1920"
     inkscape:window-height="1017"
     inkscape:window-x="-8"
     inkscape:window-y="-8"
     inkscape:window-maximized="1"
     inkscape:current-layer="svg6427" />
  <path
     d="M1 8a7 7 0 1 0 14 0A7 7 0 0 0 1 8Zm15 0A8 8 0 1 1 0 8a8 8 0 0 1 16 0ZM9.283 4.002V12H7.971V5.338h-.065L6.072 6.656V5.385l1.899-1.383h1.312Z"
     id="path6425" />
  <path
     style="fill:#ffffff;stroke-width:0.0191159;paint-order:stroke fill markers"
     d="M 7.6845878,14.985163 C 6.9545766,14.93693 6.3594533,14.823149 5.7494262,14.61518 3.3277205,13.789579 1.5290876,11.680379 1.1108139,9.1756272 1.0357172,8.725925 1.0227001,8.5522497 1.0227001,8 c 0,-0.6825969 0.044958,-1.0745225 0.1923447,-1.6767692 C 1.865445,3.6655795 4.0615417,1.6074287 6.7670251,1.1199934 7.5508741,0.97877073 8.4493301,0.97874613 9.239,1.1199258 11.910356,1.5975191 14.086108,3.6199897 14.769124,6.260454 14.923418,6.856938 14.9773,7.3071822 14.9773,8 c 0,0.5664327 -0.01332,0.7358834 -0.09544,1.213859 -0.319061,1.857102 -1.421749,3.540253 -3.020447,4.610435 -0.908806,0.608362 -1.9991274,1.002747 -3.1063323,1.123606 -0.261394,0.02853 -0.8778463,0.04999 -1.0704899,0.03726 z M 9.2903226,8 V 3.9856631 H 8.6316305 7.9729386 l -0.9518218,0.6938361 -0.9518217,0.693836 -0.00503,0.6442763 c -0.00277,0.3543518 0.00153,0.6440592 0.00956,0.6437941 C 6.0818551,6.6611399 6.5002718,6.3643663 7.0036509,6.0019074 7.50703,5.6394485 7.9263848,5.3428913 7.9355505,5.3428913 c 0.00941,0 0.016665,1.4462008 0.016665,3.3229788 0,1.8276389 0.00573,3.3287139 0.012744,3.3357229 0.00701,0.007 0.3080843,0.01274 0.6690561,0.01274 h 0.6563122 z"
     id="path7461" />
  <path
     style="fill:#ffffff;stroke-width:0.0191159;paint-order:stroke fill markers"
     d="M 7.6750299,14.984915 C 6.0160837,14.883126 4.5780819,14.296111 3.3615167,13.224068 2.1563692,12.162087 1.3267105,10.638653 1.0907797,9.0544998 0.96729523,8.2253653 0.99518428,7.3122783 1.1681605,6.5210541 1.7381329,3.9138986 3.7339173,1.8602203 6.3261253,1.2134665 6.8781209,1.0757441 7.3824249,1.0163599 8,1.0163599 c 0.4731928,0 0.7446247,0.02152 1.1668227,0.092509 C 11.896905,1.5679094 14.128366,3.6400206 14.785779,6.3265711 14.932295,6.9253157 14.9773,7.3185529 14.9773,8 c 0,0.6825969 -0.04496,1.0745225 -0.192345,1.6767692 -0.650252,2.6570458 -2.855952,4.7244488 -5.5519801,5.2038688 -0.4449856,0.07913 -1.1732983,0.127877 -1.557945,0.104277 z M 9.2903226,8 V 3.9856631 H 8.6324043 7.9744862 L 7.0218906,4.6793176 6.0692951,5.372972 6.0642619,6.0174299 c -0.00277,0.3544518 2.963e-4,0.6444578 0.00681,0.6444578 0.00651,0 0.4191841,-0.2926098 0.9170449,-0.650244 0.4978609,-0.357634 0.9184522,-0.6553287 0.9346473,-0.6615434 0.026447,-0.010149 0.029472,0.3243146 0.029707,3.2834578 1.529e-4,1.8121169 0.00545,3.3141119 0.011788,3.3377679 l 0.011526,0.04301 h 0.6572688 0.6572687 z"
     id="path7463" />
</svg>
